<svg width="100" height="20" viewBox="0 0 100 20" fill="none" xmlns="http://www.w3.org/2000/svg">
<path fill-rule="evenodd" clip-rule="evenodd" d="M18.4733 0.0605917C16.2041 1.3185 15.0635 3.82367 15.433 6.2468C13.7317 4.71575 11.4805 3.78398 9.01158 3.78398H7.75589C3.47243 3.78398 0 7.25642 0 11.5399C0 15.8234 3.47243 19.2958 7.75589 19.2958H12.7049C15.9685 19.2958 18.6141 16.6501 18.6141 13.3865C18.6141 12.5885 18.5167 11.8132 18.3332 11.0719C20.1696 12.3963 22.6788 12.6268 24.7904 11.4564C25.0235 11.3272 25.1078 11.0335 24.9785 10.8003L23.9492 8.94325C22.9083 7.06567 20.5499 6.38058 18.6669 7.402C20.5309 6.34633 21.1996 3.9834 20.1589 2.10588L19.1295 0.248707C19.0003 0.0156108 18.7066 -0.0686191 18.4733 0.0605917Z" fill="#ABA4E1"/>
<path fill-rule="evenodd" clip-rule="evenodd" d="M10.0826 9.2126C10.0826 9.64095 9.73539 9.98819 9.30704 9.98819C8.87873 9.98819 8.53149 9.64095 8.53149 9.2126C8.53149 8.78434 8.87873 8.43701 9.30704 8.43701C9.73539 8.43701 10.0826 8.78434 10.0826 9.2126ZM0 11.5396C0 10.729 0.124368 9.94741 0.355066 9.21287H3.10236C6.52913 9.21287 9.30704 11.9909 9.30704 15.4175V19.2955H7.75589C3.47243 19.2955 0 15.8231 0 11.5396Z" fill="#6160A4"/>
<path d="M36.5768 2.76172H38.7409V8.56544L41.4952 2.76172H43.6593L41.082 7.81784L43.6986 16.5332H41.4362L39.6065 10.3951L38.7409 12.146V16.5332H36.5768V2.76172ZM52.5731 16.73C51.5239 16.73 50.7238 16.4349 50.1729 15.8447C49.6221 15.2413 49.3466 14.3823 49.3466 13.2674V2.76172H51.5107V13.4248C51.5107 13.897 51.6026 14.238 51.7862 14.4478C51.9829 14.6577 52.2583 14.7626 52.6125 14.7626C52.9666 14.7626 53.2355 14.6577 53.4191 14.4478C53.6158 14.238 53.7142 13.897 53.7142 13.4248V2.76172H55.7996V13.2674C55.7996 14.3823 55.5242 15.2413 54.9733 15.8447C54.4224 16.4349 53.6223 16.73 52.5731 16.73ZM62.5741 16.6119C62.1806 16.6119 61.8462 16.5857 61.5708 16.5332V14.5659C61.7805 14.6184 62.0166 14.6446 62.279 14.6446C62.7118 14.6446 63.0331 14.5397 63.243 14.3298C63.4528 14.1069 63.5578 13.7724 63.5578 13.3265V2.76172H65.7219V13.2674C65.7219 14.3954 65.4595 15.2348 64.9349 15.7857C64.4234 16.3365 63.6365 16.6119 62.5741 16.6119ZM71.9908 2.76172H74.1549V16.5332H71.9908V2.76172ZM80.4973 2.76172H83.7041C84.819 2.76172 85.6321 3.02404 86.1436 3.54866C86.6551 4.06018 86.9109 4.85368 86.9109 5.92917V6.77514C86.9109 8.20479 86.4387 9.10977 85.4944 9.4901V9.52945C86.019 9.68684 86.3863 10.0081 86.5961 10.4935C86.8191 10.9788 86.9306 11.628 86.9306 12.4411V14.861C86.9306 15.2545 86.9437 15.5758 86.9699 15.825C86.9962 16.0611 87.0617 16.2972 87.1666 16.5332H84.9632C84.8845 16.3103 84.8321 16.1004 84.8058 15.9037C84.7796 15.707 84.7665 15.3528 84.7665 14.8413V12.3231C84.7665 11.6935 84.6616 11.2542 84.4517 11.005C84.255 10.7557 83.9074 10.6312 83.409 10.6312H82.6614V16.5332H80.4973V2.76172ZM83.4483 8.66381C83.8812 8.66381 84.2025 8.55229 84.4123 8.32936C84.6354 8.10642 84.7468 7.73262 84.7468 7.20796V6.14559C84.7468 5.64718 84.655 5.2865 84.4714 5.06354C84.3009 4.84057 84.0255 4.72908 83.6451 4.72908H82.6614V8.66381H83.4483ZM94.8258 2.76172H97.7572L100 16.5332H97.8359L97.4424 13.7986V13.838H94.9832L94.5898 16.5332H92.583L94.8258 2.76172ZM97.1867 11.969L96.2227 5.16191H96.1833L95.239 11.969H97.1867Z" fill="#6160A4"/>
</svg>
