<svg width="24" height="24" viewBox="0 0 24 24" fill="none" xmlns="http://www.w3.org/2000/svg">
<path d="M11.9805 23.9999C5.36685 23.9926 0.007263 18.6243 0 11.9999C0.471727 12.1334 0.959455 12.2016 1.44964 12.2027C3.0712 12.2146 4.59466 11.4261 5.523 10.0943C6.35295 8.89385 6.52832 7.35709 5.99023 5.99997C6.33429 6.06143 6.68305 6.09275 7.03253 6.09357C8.58624 6.10517 10.0609 5.40838 11.04 4.19998C11.9981 3.02729 12.3727 1.48224 12.0583 0C18.675 0.0215391 24.0214 5.41155 23.9999 12.0389C23.9784 18.6663 18.5971 24.0214 11.9805 23.9999ZM12.8946 19.8815C13.0789 19.9609 13.2774 20.0017 13.478 20.0015C14.0835 20.0009 14.6291 19.6355 14.861 19.0754C15.093 18.5152 14.9656 17.8703 14.5383 17.4407C14.2567 17.1598 13.8755 17.0019 13.478 17.0015C12.767 17.0032 12.1552 17.5053 12.0138 18.2032C11.8725 18.9011 12.2405 19.6024 12.8946 19.8815ZM5.89439 17.8499C6.13446 17.9493 6.39177 18.0003 6.65156 17.9999C7.4621 17.9997 8.19213 17.5088 8.49926 16.7575C8.8064 16.0062 8.62971 15.1435 8.05207 14.5739C7.67868 14.2056 7.17563 13.9991 6.65156 13.9991C5.5493 14.0004 4.65627 14.8955 4.65561 15.9995C4.65581 16.8021 5.13372 17.5272 5.87043 17.8427H5.87642H5.8896L5.89439 17.8499ZM17.1932 14.8415C17.9984 15.1802 18.93 14.9552 19.4927 14.2861C20.0553 13.6169 20.1182 12.6591 19.648 11.9219C19.5007 11.6923 19.3083 11.4951 19.0825 11.3423C18.4623 10.9229 17.6601 10.8859 17.004 11.2465C16.348 11.6071 15.9482 12.3048 15.9684 13.054C15.9886 13.8033 16.4252 14.4784 17.0997 14.8031H17.0853L17.1213 14.8187L17.1452 14.8283H17.1381C17.1552 14.8338 17.172 14.8402 17.1884 14.8475L17.1932 14.8415ZM11.9805 9.99955C11.5026 9.99875 11.0911 10.3369 10.9986 10.8065C10.906 11.276 11.1583 11.7455 11.6006 11.9267C12.0429 12.1078 12.5513 11.95 12.8138 11.55C13.0762 11.15 13.0192 10.6199 12.6777 10.2851C12.5887 10.1973 12.4838 10.1273 12.3686 10.0787L12.3471 10.0691L12.3147 10.0571C12.2074 10.0188 12.0944 9.99931 11.9805 9.99955ZM16.4731 5.00037C15.7066 4.99847 15.0631 5.57847 14.9845 6.34227C14.9059 7.10606 15.4177 7.80532 16.1686 7.96007C16.9195 8.11482 17.6653 7.67475 17.8941 6.94192C18.123 6.2091 17.7605 5.42177 17.0554 5.12037H17.0434C16.863 5.04321 16.6693 5.00243 16.4731 5.00037ZM2.99512 8.99995C2.44395 8.99995 1.99714 8.55242 1.99714 8.00036C1.99714 7.4483 2.44395 7.00076 2.99512 7.00076C3.54628 7.00076 3.99309 7.4483 3.99309 8.00036C3.99243 8.55214 3.54601 8.99929 2.99512 8.99995ZM1.49756 5.99997C0.67048 5.99997 0 5.3284 0 4.49998C0 3.67155 0.67048 2.99998 1.49756 2.99998C2.32464 2.99998 2.99512 3.67155 2.99512 4.49998C2.9938 5.32785 2.32409 5.99865 1.49756 5.99997ZM7.48779 3.99958C6.66071 3.99958 5.99023 3.32801 5.99023 2.49959C5.99023 1.67116 6.66071 0.999595 7.48779 0.999595C8.31487 0.999595 8.98535 1.67116 8.98535 2.49959C8.98535 3.3282 8.31506 4.00012 7.48779 4.00078V3.99958ZM3.99429 2.00039C3.44328 2.00039 2.99654 1.5531 2.99632 1.00119C2.9961 0.44929 3.44248 0.00164188 3.99349 0.00119999C4.5445 0.000758746 4.9916 0.44769 4.99226 0.999595C4.99226 1.55185 4.54565 1.99973 3.99429 2.00039Z" fill="#595F98"/>
</svg>
